<svg width="1200" height="675" viewBox="0 0 1200 675" fill="none" xmlns="http://www.w3.org/2000/svg">
  <rect width="1200" height="675" fill="#FAFAFA"/>
  <rect x="116" y="92" width="968" height="491" rx="30" fill="#FFFFFF" stroke="#E5E7EB"/>
  <rect x="178" y="156" width="278" height="363" rx="20" fill="#111111"/>
  <path d="M272 396C300 422 364 422 392 396" stroke="#60A5FA" stroke-width="18" stroke-linecap="round"/>
  <path d="M316 256V382" stroke="#FFFFFF" stroke-width="18" stroke-linecap="round"/>
  <path d="M316 256L392 236V288L316 308" fill="#2563EB"/>
  <rect x="516" y="164" width="392" height="28" rx="14" fill="#DBEAFE"/>
  <rect x="516" y="232" width="502" height="24" rx="12" fill="#E5E7EB"/>
  <rect x="516" y="290" width="454" height="24" rx="12" fill="#E5E7EB"/>
  <rect x="516" y="348" width="502" height="24" rx="12" fill="#E5E7EB"/>
  <rect x="516" y="430" width="156" height="48" rx="12" fill="#2563EB"/>
  <rect x="700" y="430" width="138" height="48" rx="12" fill="#F1F5F9" stroke="#E5E7EB"/>
  <circle cx="974" cy="456" r="30" fill="#10B981"/>
  <path d="M966 456H982M974 448V464" stroke="#FFFFFF" stroke-width="6" stroke-linecap="round"/>
</svg>
