<svg width="1200" height="675" viewBox="0 0 1200 675" fill="none" xmlns="http://www.w3.org/2000/svg">
  <rect width="1200" height="675" fill="#FAFAFA"/>
  <rect x="102" y="92" width="996" height="492" rx="30" fill="#FFFFFF" stroke="#E5E7EB"/>
  <rect x="160" y="148" width="880" height="70" rx="14" fill="#111111"/>
  <rect x="200" y="174" width="140" height="18" rx="9" fill="#FFFFFF"/>
  <rect x="792" y="170" width="84" height="26" rx="13" fill="#475569"/>
  <rect x="904" y="170" width="84" height="26" rx="13" fill="#2563EB"/>
  <rect x="164" y="268" width="388" height="216" rx="22" fill="#DBEAFE"/>
  <rect x="612" y="278" width="338" height="34" rx="17" fill="#111111"/>
  <rect x="612" y="344" width="424" height="24" rx="12" fill="#E5E7EB"/>
  <rect x="612" y="394" width="354" height="24" rx="12" fill="#E5E7EB"/>
  <rect x="612" y="462" width="154" height="48" rx="12" fill="#2563EB"/>
  <circle cx="310" cy="376" r="54" fill="#2563EB"/>
  <path d="M310 324V428M258 376H362" stroke="#FFFFFF" stroke-width="16" stroke-linecap="round"/>
</svg>
